<?xml version="1.0" encoding="UTF-8"?>
<svg version="1.1" xmlns="http://www.w3.org/2000/svg" width="1080" height="1920">
<path d="M0 0 C356.4 0 712.8 0 1080 0 C1080 633.6 1080 1267.2 1080 1920 C723.6 1920 367.2 1920 0 1920 C0 1286.4 0 652.8 0 0 Z " fill="#000000" transform="translate(0,0)"/>
<path d="M0 0 C1.56911133 -0.01160156 1.56911133 -0.01160156 3.16992188 -0.0234375 C15.94616325 0.00868379 27.38653723 3.50049665 36.9375 12.375 C47.06224398 23.27150305 49.37043348 35.69828945 49.32128906 50.0090332 C49.3247937 51.27024994 49.32829834 52.53146667 49.33190918 53.8309021 C49.34098021 57.27117947 49.33751016 60.71133606 49.33115101 64.15161538 C49.32606019 67.76727369 49.33079129 71.38292218 49.33392334 74.99858093 C49.33755544 81.07190796 49.33278524 87.14518625 49.32324219 93.21850586 C49.3123738 100.2155764 49.31587448 107.21253021 49.326895 114.20959789 C49.33600709 120.23876604 49.33723363 126.26789929 49.33201766 132.29707211 C49.32891753 135.88834268 49.32843394 139.47955863 49.33509064 143.07082558 C49.34200615 147.08154694 49.33238767 151.09207121 49.32128906 155.1027832 C49.32533752 156.27561356 49.32938599 157.44844391 49.33355713 158.65681458 C49.25913253 173.24988324 46.66077851 185.60509876 36.5 196.625 C24.12247932 208.25350278 9.97784258 208.73316531 -6.05078125 208.51953125 C-17.64138887 208.14987008 -26.38350241 204.07542366 -34.9375 196.25 C-46.35518484 183.26185293 -48.24233233 167.64341953 -48.22802734 150.9206543 C-48.23474457 149.7642746 -48.24146179 148.6078949 -48.24838257 147.41647339 C-48.2672085 143.63567681 -48.27127871 139.85505913 -48.2734375 136.07421875 C-48.2782446 134.09100788 -48.28305614 132.10779697 -48.28835833 130.12458736 C-48.30455412 123.9001839 -48.3095353 117.67583814 -48.30810547 111.45141602 C-48.30690519 105.07623966 -48.32800459 98.70140242 -48.3595928 92.32631177 C-48.38592648 86.81075508 -48.39646573 81.29530804 -48.39519465 75.77968913 C-48.39469012 72.50400071 -48.40199323 69.22867824 -48.42155075 65.95303917 C-48.63009245 27.42543682 -48.63009245 27.42543682 -35.05859375 12.1328125 C-24.96252217 2.62822795 -13.42880726 -0.09892307 0 0 Z " fill="#FCFCFC" transform="translate(375.9375,855.75)"/>
<path d="M0 0 C1.56911133 -0.01160156 1.56911133 -0.01160156 3.16992188 -0.0234375 C15.94616325 0.00868379 27.38653723 3.50049665 36.9375 12.375 C47.06224398 23.27150305 49.37043348 35.69828945 49.32128906 50.0090332 C49.3247937 51.27024994 49.32829834 52.53146667 49.33190918 53.8309021 C49.34098021 57.27117947 49.33751016 60.71133606 49.33115101 64.15161538 C49.32606019 67.76727369 49.33079129 71.38292218 49.33392334 74.99858093 C49.33755544 81.07190796 49.33278524 87.14518625 49.32324219 93.21850586 C49.3123738 100.2155764 49.31587448 107.21253021 49.326895 114.20959789 C49.33600709 120.23876604 49.33723363 126.26789929 49.33201766 132.29707211 C49.32891753 135.88834268 49.32843394 139.47955863 49.33509064 143.07082558 C49.34200615 147.08154694 49.33238767 151.09207121 49.32128906 155.1027832 C49.32533752 156.27561356 49.32938599 157.44844391 49.33355713 158.65681458 C49.25913253 173.24988324 46.66077851 185.60509876 36.5 196.625 C24.12247932 208.25350278 9.97784258 208.73316531 -6.05078125 208.51953125 C-17.64138887 208.14987008 -26.38350241 204.07542366 -34.9375 196.25 C-46.35518484 183.26185293 -48.24233233 167.64341953 -48.22802734 150.9206543 C-48.23474457 149.7642746 -48.24146179 148.6078949 -48.24838257 147.41647339 C-48.2672085 143.63567681 -48.27127871 139.85505913 -48.2734375 136.07421875 C-48.2782446 134.09100788 -48.28305614 132.10779697 -48.28835833 130.12458736 C-48.30455412 123.9001839 -48.3095353 117.67583814 -48.30810547 111.45141602 C-48.30690519 105.07623966 -48.32800459 98.70140242 -48.3595928 92.32631177 C-48.38592648 86.81075508 -48.39646573 81.29530804 -48.39519465 75.77968913 C-48.39469012 72.50400071 -48.40199323 69.22867824 -48.42155075 65.95303917 C-48.63009245 27.42543682 -48.63009245 27.42543682 -35.05859375 12.1328125 C-24.96252217 2.62822795 -13.42880726 -0.09892307 0 0 Z " fill="#FCFCFC" transform="translate(259.9375,853.75)"/>
<path d="M0 0 C10.18755299 7.1652456 16.12388577 18.48652859 18.43304443 30.52371216 C19.47897659 36.54735348 19.62579715 42.41726752 19.60253906 48.51904297 C19.6060437 49.67019592 19.60954834 50.82134888 19.61315918 52.00738525 C19.62190109 55.78102805 19.6161532 59.55448057 19.609375 63.328125 C19.610724 65.97169022 19.61266648 68.6152552 19.61517334 71.25881958 C19.61879839 76.78796413 19.61405354 82.31705503 19.60449219 87.84619141 C19.59362125 94.20538293 19.59712921 100.56444602 19.608145 106.92363441 C19.6172727 112.41616936 19.61847624 117.90866604 19.61326766 123.40120614 C19.61017649 126.66721343 19.6104637 129.93314844 19.61634064 133.1991539 C19.62146497 136.84753632 19.61361265 140.49567828 19.60253906 144.14404297 C19.60658752 145.20211151 19.61063599 146.26018005 19.61480713 147.35031128 C19.52803108 162.91669494 16.9111697 177.13251302 6.5859375 189.26953125 C2.93725142 192.83558158 -1.10504083 195.21140367 -5.65625 197.4609375 C-6.30980469 197.78835938 -6.96335937 198.11578125 -7.63671875 198.453125 C-14.93259998 201.8353216 -22.46045496 201.70048906 -30.34375 201.7734375 C-31.36919922 201.80244141 -32.39464844 201.83144531 -33.45117188 201.86132812 C-46.03170333 201.96464266 -56.55791962 197.31973915 -65.78125 188.8984375 C-76.66162431 177.50402975 -77.95846544 163.41597368 -77.94677734 148.39306641 C-77.95349457 147.13462418 -77.96021179 145.87618195 -77.96713257 144.5796051 C-77.98463655 141.16005125 -77.98948117 137.74059777 -77.99076414 134.32100344 C-77.99219481 132.17654053 -77.99648147 130.03210242 -78.00175858 127.88764572 C-78.02020472 120.38373978 -78.0284357 112.87990443 -78.02685547 105.37597656 C-78.02565439 98.416852 -78.04676388 91.45803771 -78.0783428 84.49899161 C-78.10461275 78.49265692 -78.11521836 72.48642297 -78.11394465 66.48003137 C-78.11343831 62.90653482 -78.11893806 59.33331478 -78.14030075 55.75987625 C-78.16351378 51.76890539 -78.15409722 47.77861814 -78.14208984 43.78759766 C-78.15332886 42.62667099 -78.16456787 41.46574432 -78.17614746 40.26963806 C-78.06739625 25.95488512 -73.55503539 14.65730394 -63.90625 4.2109375 C-47.82234611 -11.22714998 -18.45617135 -10.69372281 0 0 Z " fill="#FC0000" transform="translate(856.65625,861.5390625)"/>
<path d="M0 0 C10.89 0 21.78 0 33 0 C33.01458252 4.96168213 33.02916504 9.92336426 33.04418945 15.03540039 C33.09449273 31.41609683 33.16092982 47.79669835 33.23571491 64.17730045 C33.28066874 74.11029563 33.3200844 84.04325498 33.34643555 93.97631836 C33.36941893 102.63459433 33.40282082 111.2927569 33.44870156 119.95094293 C33.47262914 124.53483315 33.49136098 129.1186111 33.49761391 133.70256233 C33.50366684 138.01917546 33.52367427 142.33550132 33.55427551 146.65200806 C33.56305238 148.2341913 33.56677904 149.8164121 33.56500816 151.3986187 C33.56335003 153.56413584 33.58009912 155.72878284 33.60127258 157.8941803 C33.60588155 159.10449449 33.61049051 160.31480867 33.61523914 161.56179905 C34.1765124 166.57730465 35.76269152 170.44338611 38.9375 174.4375 C44.76676694 177.41161579 51.33059617 176.76268681 57.5 175 C62.03799215 171.36960628 63.74452656 167.29215912 64.37517548 161.6338501 C64.53292761 157.39960846 64.5609608 153.18167964 64.54589844 148.9453125 C64.55464191 147.31852738 64.56513039 145.69175084 64.57722473 144.06498718 C64.60501071 139.66677199 64.60849106 135.26883845 64.60750484 130.87054825 C64.61064032 126.26739493 64.63627175 121.66436727 64.65948486 117.0612793 C64.69999979 108.352761 64.72037497 99.6443175 64.73345876 90.93571949 C64.74934408 81.01788059 64.78776617 71.10016869 64.82805204 61.18240356 C64.91038939 40.78828653 64.9615453 20.39425025 65 0 C75.23 0 85.46 0 96 0 C96.0678748 20.99350259 96.12307338 41.98691553 96.15543652 62.98050022 C96.17086661 72.72947192 96.19188188 82.4783703 96.22631836 92.22729492 C96.25633936 100.73029744 96.27560299 109.23324683 96.28226548 117.73630089 C96.28615635 122.23330547 96.2952188 126.73015812 96.31719017 131.22711372 C96.33775662 135.47144814 96.34379369 139.71556998 96.33932304 143.95994949 C96.34013933 145.50655338 96.34598376 147.05316537 96.35761642 148.59972572 C96.47717397 165.33479397 94.68504812 181.9419195 82.9375 194.875 C72.6207399 204.49231874 60.78860325 206.18779824 47.3125 206.3125 C46.28705078 206.34150391 45.26160156 206.37050781 44.20507812 206.40039062 C32.1251015 206.49959448 22.02566786 202.31743521 13.0625 194.2578125 C0.72481786 181.44151338 -0.46773554 162.38012468 -0.34057617 145.53955078 C-0.33972763 143.9414471 -0.34020945 142.34334226 -0.34190369 140.74523926 C-0.34275623 136.45271139 -0.3252522 132.16044059 -0.30418181 127.8679719 C-0.28528985 123.36502835 -0.28365479 118.8620774 -0.28010559 114.35910034 C-0.2708216 105.85259507 -0.24625777 97.34620696 -0.21605712 88.83975303 C-0.18239886 79.14676359 -0.16599851 69.45376823 -0.15097082 59.7607348 C-0.1197045 39.84041016 -0.06473864 19.92024591 0 0 Z " fill="#FAFAFA" transform="translate(556,858)"/>
<path d="M0 0 C6.22371199 4.15743961 10.46400045 8.68810541 13.9921875 15.26953125 C14.47776123 16.17477539 14.96333496 17.08001953 15.46362305 18.01269531 C20.3624517 28.45038485 20.39433637 39.83715828 20.1796875 51.14453125 C20.086875 58.13640625 20.086875 58.13640625 19.9921875 65.26953125 C9.7621875 65.26953125 -0.4678125 65.26953125 -11.0078125 65.26953125 C-11.03359375 63.04074219 -11.059375 60.81195312 -11.0859375 58.515625 C-11.12443968 56.33768523 -11.16957304 54.15997572 -11.21533203 51.98217773 C-11.24341623 50.47805932 -11.26469282 48.97379677 -11.27880859 47.46948242 C-11.30041479 45.29661941 -11.34714682 43.1254665 -11.3984375 40.953125 C-11.41938477 39.64915771 -11.44033203 38.34519043 -11.46191406 37.00170898 C-12.12991845 32.43472192 -13.42785343 30.0696283 -16.0078125 26.26953125 C-19.58756191 24.13227955 -22.88591756 23.97280381 -27.0078125 23.95703125 C-28.0184375 23.94027344 -29.0290625 23.92351563 -30.0703125 23.90625 C-33.54495877 24.33596024 -35.27748877 25.07881542 -38.0078125 27.26953125 C-42.00028188 33.01944515 -41.43044863 39.06841788 -41.39599609 45.7890625 C-41.40388153 47.67786636 -41.40388153 47.67786636 -41.41192627 49.60482788 C-41.4255638 53.04700316 -41.42031615 56.48890768 -41.41078901 59.93108749 C-41.40317384 63.53975891 -41.41024317 67.14840772 -41.41494751 70.75708008 C-41.42039967 76.81628566 -41.41322768 82.87538142 -41.39892578 88.93457031 C-41.38260023 95.93174829 -41.38788912 102.92866399 -41.404405 109.92583561 C-41.4180353 115.94215922 -41.419932 121.95840405 -41.41208899 127.97473812 C-41.40742093 131.56422663 -41.40676363 135.153592 -41.41669846 138.74307251 C-41.42700327 142.74553873 -41.41270562 146.74755543 -41.39599609 150.75 C-41.40206879 151.93459808 -41.40814148 153.11919617 -41.41439819 154.33969116 C-41.36645742 162.22721595 -41.36645742 162.22721595 -38.0078125 169.26953125 C-32.82832301 173.40962909 -27.33364042 172.87811361 -21.0078125 172.26953125 C-17.43303745 171.44425042 -17.43303745 171.44425042 -15.0078125 169.26953125 C-12.12918473 163.83540026 -11.54502823 159.36217431 -11.49609375 153.2734375 C-11.47814255 152.43989243 -11.46019135 151.60634735 -11.44169617 150.74754333 C-11.38790955 148.10908937 -11.35380019 145.47081297 -11.3203125 142.83203125 C-11.28711138 141.03317858 -11.25261916 139.23434925 -11.21679688 137.43554688 C-11.1297919 133.04685394 -11.0694556 128.65894531 -11.0078125 124.26953125 C-0.7778125 124.26953125 9.4521875 124.26953125 19.9921875 124.26953125 C20.08512617 129.24691321 20.16440914 134.22116468 20.21191406 139.19873047 C20.23176026 140.88405679 20.25884643 142.56931686 20.29394531 144.25439453 C20.63367385 161.01100492 18.62655964 175.45417071 8.7421875 189.45703125 C-1.68212712 200.11826211 -13.73224457 202.60389325 -28.1328125 202.76953125 C-29.1338501 202.78806152 -30.1348877 202.8065918 -31.16625977 202.82568359 C-42.92839511 202.72720721 -53.44103847 198.53722448 -61.98046875 190.38671875 C-72.62553873 178.86020985 -74.15894458 165.8823502 -74.15307617 150.79174805 C-74.15643478 149.54857819 -74.1597934 148.30540833 -74.16325378 147.02456665 C-74.17110293 143.62977112 -74.17443001 140.23503678 -74.17506957 136.84023643 C-74.17578265 134.71458728 -74.17792184 132.58894446 -74.18056679 130.46329689 C-74.18980553 123.03420228 -74.19390354 115.60512556 -74.19311523 108.17602539 C-74.19251491 101.27268915 -74.20306162 94.36943116 -74.2188589 87.4661147 C-74.23197405 81.52106445 -74.23729746 75.57603966 -74.23665982 69.63097507 C-74.236406 66.08833834 -74.23919318 62.54577123 -74.24983788 59.00314903 C-74.26140102 55.04723484 -74.25674777 51.09142634 -74.25073242 47.13549805 C-74.25635193 45.97620285 -74.26197144 44.81690765 -74.26776123 43.6224823 C-74.21011821 28.6560573 -70.88228121 15.70144146 -60.453125 4.6171875 C-45.34199827 -9.59016371 -17.35464542 -9.98455574 0 0 Z " fill="#FCFCFC" transform="translate(519.0078125,861.73046875)"/>
<path d="M0 0 C10.89 0 21.78 0 33 0 C33 57.42 33 114.84 33 174 C50.16 174 67.32 174 85 174 C85 183.9 85 193.8 85 204 C56.95 204 28.9 204 0 204 C0 136.68 0 69.36 0 0 Z " fill="#F6F6F6" transform="translate(674,858)"/>
<path d="M0 0 C3.76916441 2.7326442 6.02501042 5.38753126 7.5 9.8125 C7.60045772 11.53243451 7.64358583 13.25597064 7.65390015 14.97880554 C7.66250061 16.04837997 7.67110107 17.11795441 7.67996216 18.21994019 C7.68422211 19.39348053 7.68848206 20.56702087 7.69287109 21.77612305 C7.70513733 23.6301902 7.70513733 23.6301902 7.71765137 25.52171326 C7.74251509 29.62254513 7.75917806 33.72334012 7.7734375 37.82421875 C7.77879873 39.23778604 7.78417625 40.65135326 7.78956985 42.06492043 C7.81119613 47.94719782 7.82993084 53.82947251 7.84119225 59.71177959 C7.85741866 68.13119167 7.89056682 76.55014134 7.94759309 84.96937913 C7.98635366 90.89478099 8.00583224 96.82005951 8.01111281 102.74558479 C8.01475854 106.28169267 8.02669513 109.81730704 8.05921555 113.35327721 C8.09502008 117.30295587 8.09090971 121.25205914 8.08349609 125.2019043 C8.09990143 126.36532349 8.11630676 127.52874268 8.13320923 128.72741699 C8.0799598 135.66437964 7.17284214 140.50945703 2.5 145.8125 C-2.03411053 149.35131798 -7.00410301 149.44443937 -12.5859375 149.28515625 C-16.33803916 148.6765714 -18.33392821 147.43790928 -21.09765625 144.90625 C-25.79495916 137.89300666 -25.93331532 131.00311933 -25.88818359 122.83203125 C-25.89344055 121.65377777 -25.89869751 120.47552429 -25.90411377 119.26156616 C-25.91727359 115.38257431 -25.90858947 111.50399574 -25.8984375 107.625 C-25.8991064 104.92032542 -25.90336756 102.21565811 -25.90713501 99.51098633 C-25.91258068 93.84875037 -25.90543231 88.18663212 -25.89111328 82.52441406 C-25.87478896 75.99415434 -25.88007832 69.46417569 -25.8965925 62.93392277 C-25.9102414 57.30987945 -25.91211046 51.68592035 -25.90427649 46.06186581 C-25.89961856 42.7104081 -25.90011461 39.35918754 -25.90888596 36.00772095 C-25.9165234 32.26927825 -25.90486305 28.53137163 -25.88818359 24.79296875 C-25.89425629 23.69350922 -25.90032898 22.59404968 -25.90658569 21.46127319 C-25.84852577 14.41977944 -25.11112522 8.71100451 -21.09765625 2.71875 C-14.99127861 -2.87487837 -7.57147232 -2.5688924 0 0 Z " fill="#030303" transform="translate(385.5,886.1875)"/>
<path d="M0 0 C4.93264781 4.33475111 7.745942 8.60943863 8.2484684 15.28167343 C8.3302268 18.37804213 8.34409236 21.46846339 8.3371582 24.56591797 C8.34226913 25.74387939 8.34738007 26.92184082 8.35264587 28.13549805 C8.36413914 31.35463388 8.3666194 34.57360948 8.36408257 37.79276037 C8.36300973 40.48641271 8.36790431 43.18004154 8.372688 45.87368882 C8.38376835 52.23237959 8.38422911 58.59101128 8.37817383 64.94970703 C8.37213666 71.49468197 8.38444175 78.03944179 8.4057439 84.58438003 C8.42339758 90.21686506 8.42935528 95.84928186 8.42610615 101.48179352 C8.4242989 104.8399714 8.4268732 108.19799587 8.44082069 111.55614853 C8.45317907 115.30436443 8.44639621 119.05208479 8.43481445 122.80029297 C8.44628006 124.4541954 8.44628006 124.4541954 8.45797729 126.14151001 C8.40979334 133.2090902 7.64590575 138.85619862 3.6953125 144.90625 C-0.15554812 148.49772622 -3.23560763 149.25741816 -8.5 149.4375 C-13.73432162 149.16738019 -17.11060994 148.63939006 -20.9375 144.8125 C-25.58656261 138.51232966 -25.50297584 133.02920858 -25.43920898 125.36303711 C-25.44461197 124.12319565 -25.45001495 122.88335419 -25.45558167 121.60594177 C-25.46591504 118.22140668 -25.45840392 114.83785603 -25.44187045 111.453408 C-25.42796892 107.90346981 -25.4344857 104.35355976 -25.43800354 100.80360413 C-25.4407013 94.84449065 -25.42726644 88.88557909 -25.40405273 82.92651367 C-25.37743338 76.04575089 -25.37570132 69.16532532 -25.3874411 62.28452867 C-25.39823456 55.6524723 -25.39202034 49.02053742 -25.37788582 42.38849068 C-25.3721408 39.57163164 -25.37219692 36.75486193 -25.37695122 33.93800163 C-25.38262649 30.00272823 -25.36336733 26.06778987 -25.34155273 22.13256836 C-25.34605438 20.9682428 -25.35055603 19.80391724 -25.35519409 18.60430908 C-25.30320398 12.96080472 -25.24363885 8.6258242 -21.9375 3.8125 C-15.85577411 -1.81309645 -7.76788387 -3.14020837 0 0 Z " fill="#030000" transform="translate(835.9375,885.1875)"/>
<path d="M0 0 C3.76916441 2.7326442 6.02501042 5.38753126 7.5 9.8125 C7.60045772 11.53243451 7.64358583 13.25597064 7.65390015 14.97880554 C7.66250061 16.04837997 7.67110107 17.11795441 7.67996216 18.21994019 C7.68422211 19.39348053 7.68848206 20.56702087 7.69287109 21.77612305 C7.70513733 23.6301902 7.70513733 23.6301902 7.71765137 25.52171326 C7.74251509 29.62254513 7.75917806 33.72334012 7.7734375 37.82421875 C7.77879873 39.23778604 7.78417625 40.65135326 7.78956985 42.06492043 C7.81119613 47.94719782 7.82993084 53.82947251 7.84119225 59.71177959 C7.85741866 68.13119167 7.89056682 76.55014134 7.94759309 84.96937913 C7.98635366 90.89478099 8.00583224 96.82005951 8.01111281 102.74558479 C8.01475854 106.28169267 8.02669513 109.81730704 8.05921555 113.35327721 C8.09502008 117.30295587 8.09090971 121.25205914 8.08349609 125.2019043 C8.09990143 126.36532349 8.11630676 127.52874268 8.13320923 128.72741699 C8.0799598 135.66437964 7.17284214 140.50945703 2.5 145.8125 C-2.03411053 149.35131798 -7.00410301 149.44443937 -12.5859375 149.28515625 C-16.33803916 148.6765714 -18.33392821 147.43790928 -21.09765625 144.90625 C-25.79495916 137.89300666 -25.93331532 131.00311933 -25.88818359 122.83203125 C-25.89344055 121.65377777 -25.89869751 120.47552429 -25.90411377 119.26156616 C-25.91727359 115.38257431 -25.90858947 111.50399574 -25.8984375 107.625 C-25.8991064 104.92032542 -25.90336756 102.21565811 -25.90713501 99.51098633 C-25.91258068 93.84875037 -25.90543231 88.18663212 -25.89111328 82.52441406 C-25.87478896 75.99415434 -25.88007832 69.46417569 -25.8965925 62.93392277 C-25.9102414 57.30987945 -25.91211046 51.68592035 -25.90427649 46.06186581 C-25.89961856 42.7104081 -25.90011461 39.35918754 -25.90888596 36.00772095 C-25.9165234 32.26927825 -25.90486305 28.53137163 -25.88818359 24.79296875 C-25.89425629 23.69350922 -25.90032898 22.59404968 -25.90658569 21.46127319 C-25.84852577 14.41977944 -25.11112522 8.71100451 -21.09765625 2.71875 C-14.99127861 -2.87487837 -7.57147232 -2.5688924 0 0 Z " fill="#030303" transform="translate(269.5,884.1875)"/>
</svg>
